<svg width="96" height="96" viewBox="0 0 96 96" fill="none" xmlns="http://www.w3.org/2000/svg">
<path d="M44.0834 36.1359H87.4932M8.56641 44.0285L19.6438 31.57C21.1247 29.9034 22.942 28.5694 24.9758 27.6559C27.0096 26.7424 29.2138 26.27 31.4433 26.27H32.2444M8.56641 77.5724H30.2713L46.0566 65.7334C46.0566 65.7334 49.2532 63.5748 53.9493 59.8139C63.8151 51.9212 53.9493 39.4271 44.0834 46.0017C36.0487 51.3569 28.2981 55.8676 28.2981 55.8676" stroke="#BCBCBC" stroke-width="4" stroke-linecap="round" stroke-linejoin="round"/>
<path d="M32.2461 53.894V28.2428C32.2461 26.1495 33.0776 24.142 34.5578 22.6618C36.038 21.1816 38.0455 20.3501 40.1388 20.3501H79.6022C81.6954 20.3501 83.703 21.1816 85.1831 22.6618C86.6633 24.142 87.4948 26.1495 87.4948 28.2428V51.9208C87.4948 54.0141 86.6633 56.0216 85.1831 57.5018C83.703 58.9819 81.6954 59.8135 79.6022 59.8135H53.951" stroke="#BCBCBC" stroke-width="4"/>
</svg>
