<svg width="96" height="105" viewBox="0 0 96 105" fill="none" xmlns="http://www.w3.org/2000/svg">
<path d="M63.9053 40.3814C63.9053 56.7598 50.628 70.0372 34.2495 70.0372C17.8711 70.0372 4.59375 56.7598 4.59375 40.3814C4.59375 24.0029 17.8711 10.7256 34.2495 10.7256C50.628 10.7256 63.9053 24.0029 63.9053 40.3814Z" fill="#F7F7F7"/>
<path fill-rule="evenodd" clip-rule="evenodd" d="M34.2495 64.8999C47.7907 64.8999 58.768 53.9226 58.768 40.3814C58.768 26.8402 47.7907 15.8629 34.2495 15.8629C20.7083 15.8629 9.73103 26.8402 9.73103 40.3814C9.73103 53.9226 20.7083 64.8999 34.2495 64.8999ZM34.2495 70.0372C50.628 70.0372 63.9053 56.7598 63.9053 40.3814C63.9053 24.0029 50.628 10.7256 34.2495 10.7256C17.8711 10.7256 4.59375 24.0029 4.59375 40.3814C4.59375 56.7598 17.8711 70.0372 34.2495 70.0372Z" fill="#CECECE"/>
<path fill-rule="evenodd" clip-rule="evenodd" d="M22.6039 39.365C23.3979 34.0149 26.1043 29.3975 28.3728 26.751L30.3231 28.4226C28.2985 30.7846 25.8533 34.9679 25.1448 39.7421C24.4458 44.4516 25.4258 49.7529 30.2561 54.5832L28.4398 56.3995C22.9669 50.9266 21.8003 44.7798 22.6039 39.365Z" fill="#CECECE"/>
<path fill-rule="evenodd" clip-rule="evenodd" d="M45.7476 39.365C44.9536 34.0149 42.2472 29.3975 39.9788 26.751L38.0285 28.4226C40.053 30.7846 42.4983 34.9679 43.2068 39.7421C43.9057 44.4516 42.9258 49.7529 38.0955 54.5832L39.9118 56.3995C45.3847 50.9266 46.5512 44.7798 45.7476 39.365Z" fill="#CECECE"/>
<path fill-rule="evenodd" clip-rule="evenodd" d="M20.4375 30.5967H47.2688V33.1653H20.4375V30.5967Z" fill="#CECECE"/>
<path fill-rule="evenodd" clip-rule="evenodd" d="M35.6719 27.5859L35.6719 55.4905L33.1032 55.4905L33.1032 27.5859L35.6719 27.5859Z" fill="#CECECE"/>
<path fill-rule="evenodd" clip-rule="evenodd" d="M20.4375 37.0342H47.2688V39.6028H20.4375V37.0342Z" fill="#CECECE"/>
<path fill-rule="evenodd" clip-rule="evenodd" d="M20.4375 43.4736H47.2688V46.0423H20.4375V43.4736Z" fill="#CECECE"/>
<path fill-rule="evenodd" clip-rule="evenodd" d="M20.4375 49.9141H47.2688V52.4827H20.4375V49.9141Z" fill="#CECECE"/>
<path d="M92.2725 68.7476C92.2725 85.126 78.9952 98.4034 62.6167 98.4034C46.2383 98.4034 32.9609 85.126 32.9609 68.7476C32.9609 52.3691 46.2383 39.0918 62.6167 39.0918C78.9952 39.0918 92.2725 52.3691 92.2725 68.7476Z" fill="#F7F7F7"/>
<path fill-rule="evenodd" clip-rule="evenodd" d="M62.6167 93.2661C76.1579 93.2661 87.1352 82.2888 87.1352 68.7476C87.1352 55.2064 76.1579 44.2291 62.6167 44.2291C49.0755 44.2291 38.0982 55.2064 38.0982 68.7476C38.0982 82.2888 49.0755 93.2661 62.6167 93.2661ZM62.6167 98.4034C78.9952 98.4034 92.2725 85.126 92.2725 68.7476C92.2725 52.3691 78.9952 39.0918 62.6167 39.0918C46.2383 39.0918 32.9609 52.3691 32.9609 68.7476C32.9609 85.126 46.2383 98.4034 62.6167 98.4034Z" fill="#CECECE"/>
<path d="M61.2742 80.3516V77.2714C60.0561 76.9849 59.0044 76.4357 58.1191 75.6239C57.2337 74.812 56.5847 73.6659 56.1719 72.1855L58.7231 71.111C59.0678 72.2572 59.5794 73.1287 60.2579 73.7256C60.9364 74.3226 61.8268 74.621 62.9291 74.621C63.8714 74.621 64.6703 74.3999 65.3258 73.9577C65.9813 73.5155 66.3086 72.8293 66.3077 71.899C66.3077 71.0633 66.0548 70.4009 65.5492 69.9119C65.0436 69.4229 63.8714 68.8675 62.0327 68.2457C60.0561 67.6011 58.7001 66.8308 57.9646 65.9349C57.2291 65.039 56.8614 63.9468 56.8614 62.6584C56.8614 61.1064 57.344 59.9006 58.3094 59.041C59.2747 58.1814 60.263 57.6919 61.2742 57.5725V54.564H64.0323V57.5725C65.1815 57.7635 66.1298 58.1995 66.8772 58.8805C67.6246 59.5615 68.1703 60.391 68.5141 61.369L65.9629 62.5152C65.6871 61.7511 65.2964 61.178 64.7907 60.796C64.2851 60.4139 63.5956 60.2229 62.7222 60.2229C61.7109 60.2229 60.941 60.456 60.4124 60.9221C59.8837 61.3881 59.6194 61.9669 59.6194 62.6584C59.6194 63.4464 59.9642 64.0672 60.6537 64.5209C61.3432 64.9745 62.5383 65.4521 64.2391 65.9535C65.825 66.4311 67.0261 67.1894 67.8425 68.2286C68.6589 69.2677 69.0666 70.4673 69.0657 71.8274C69.0657 73.5227 68.583 74.812 67.6177 75.6955C66.6524 76.579 65.4573 77.1282 64.0323 77.3431V80.3516H61.2742Z" fill="#CECECE"/>
<path d="M89.1566 39.0967L91.4696 26.8617C92.083 23.6167 91.3698 20.2587 89.487 17.5262C87.6042 14.7938 84.7059 12.9108 81.4298 12.2915L70.6544 10.2545L77.6262 5.54823L75.4294 2.38402L63.02 10.7608L71.5152 23.0895L74.6965 20.942L69.9428 14.0191L80.7181 16.0561C85.4691 16.9542 88.5583 21.4374 87.6687 26.1432L85.3558 38.3782L89.1566 39.0967Z" fill="#CECECE"/>
<path d="M0.668106 70.8926L0.668107 83.3443C0.668107 86.6467 1.9926 89.8139 4.35021 92.149C6.70782 94.4842 9.90542 95.7961 13.2396 95.7961L24.2058 95.7961L18.2295 101.715L20.9759 104.417L31.6133 93.8804L20.9759 83.3443L18.2488 86.0454L24.2058 91.9648L13.2396 91.9648C8.4044 91.9648 4.53625 88.1335 4.53625 83.3443L4.53625 70.8926L0.668106 70.8926Z" fill="#CECECE"/>
</svg>
