<svg width="86" height="86" viewBox="0 0 86 86" fill="none" xmlns="http://www.w3.org/2000/svg">
<path d="M79.0276 44.1755C79.0438 43.5918 79.0438 43.008 79.0276 42.4243L85.0759 34.8679C85.3931 34.4711 85.6126 34.0054 85.7168 33.5083C85.821 33.0112 85.807 32.4966 85.6759 32.0058C84.6844 28.2787 83.2011 24.7002 81.2653 21.3645C81.0118 20.9279 80.6599 20.5566 80.2377 20.28C79.8154 20.0034 79.3344 19.8292 78.833 19.7713L69.2172 18.7011C68.8172 18.2795 68.4119 17.8741 68.0011 17.4849L66.866 7.84485C66.8076 7.34303 66.6328 6.86179 66.3555 6.4395C66.0782 6.01721 65.7061 5.66554 65.2688 5.41254C61.9318 3.48025 58.3535 1.99851 54.6274 1.00599C54.1364 0.875444 53.6215 0.862092 53.1244 0.96701C52.6273 1.07193 52.1618 1.29218 51.7654 1.61002L44.2292 7.62594H42.478L34.9216 1.58975C34.5248 1.27261 34.0591 1.05309 33.562 0.948877C33.0649 0.844665 32.5503 0.858674 32.0596 0.989775C28.333 1.98308 24.7547 3.46621 21.4182 5.40037C20.9816 5.65384 20.6103 6.00572 20.3337 6.42798C20.0571 6.85025 19.883 7.33124 19.825 7.83269L18.7548 17.4647C18.3332 17.8673 17.9278 18.2727 17.5386 18.6808L7.89856 19.7875C7.39674 19.8459 6.9155 20.0207 6.49321 20.298C6.07092 20.5753 5.71925 20.9475 5.46625 21.3847C3.53396 24.7217 2.05223 28.3 1.0597 32.0261C0.929155 32.5171 0.915803 33.032 1.02072 33.5291C1.12564 34.0262 1.34589 34.4917 1.66373 34.8881L7.67965 42.4243V44.1755L1.64346 51.7319C1.32632 52.1287 1.1068 52.5944 1.00259 53.0915C0.898376 53.5886 0.912385 54.1032 1.04349 54.5939C2.03502 58.3211 3.51824 61.8996 5.45408 65.2353C5.70756 65.6719 6.05943 66.0432 6.48169 66.3198C6.90396 66.5964 7.38495 66.7705 7.8864 66.8285L17.5022 67.8987C17.9048 68.3203 18.3102 68.7257 18.7183 69.1149L19.8412 78.7549C19.8996 79.2568 20.0744 79.738 20.3517 80.1603C20.629 80.5826 21.0012 80.9343 21.4384 81.1873C24.7754 83.1195 28.3537 84.6013 32.0798 85.5938C32.5709 85.7244 33.0857 85.7377 33.5828 85.6328C34.0799 85.5279 34.5455 85.3076 34.9419 84.9898L42.478 78.9739C43.0617 78.9901 43.6455 78.9901 44.2292 78.9739L51.7856 85.0222C52.1824 85.3393 52.6481 85.5589 53.1452 85.6631C53.6423 85.7673 54.1569 85.7533 54.6477 85.6222C58.3748 84.6306 61.9533 83.1474 65.289 81.2116C65.7256 80.9581 66.0969 80.6062 66.3735 80.184C66.6501 79.7617 66.8243 79.2807 66.8822 78.7793L67.9524 69.1635C68.374 68.7635 68.7794 68.3581 69.1686 67.9474L78.8087 66.8123C79.3105 66.7539 79.7917 66.5791 80.214 66.3018C80.6363 66.0245 80.988 65.6523 81.241 65.2151C83.1733 61.8781 84.655 58.2998 85.6475 54.5737C85.7781 54.0827 85.7914 53.5678 85.6865 53.0707C85.5816 52.5736 85.3613 52.108 85.0435 51.7117L79.0276 44.1755ZM72.5009 41.5405C72.5698 42.7124 72.5698 43.8874 72.5009 45.0593C72.4526 45.8616 72.7039 46.6533 73.2062 47.2808L78.9586 54.4683C78.2986 56.566 77.4534 58.6009 76.4331 60.5491L67.2714 61.5869C66.4735 61.6754 65.7369 62.0567 65.2039 62.6571C64.4236 63.5347 63.5925 64.3658 62.7148 65.1461C62.1145 65.6791 61.7332 66.4158 61.6446 67.2136L60.6271 76.3672C58.6792 77.388 56.6442 78.2332 54.5463 78.8928L47.3548 73.1404C46.7793 72.6805 46.0644 72.4303 45.3278 72.4309H45.1333C43.9613 72.4998 42.7864 72.4998 41.6145 72.4309C40.8122 72.3826 40.0205 72.634 39.393 73.1363L32.1852 78.8928C30.0875 78.2327 28.0526 77.3875 26.1044 76.3672L25.0667 67.2177C24.9781 66.4198 24.5968 65.6831 23.9964 65.1502C23.1188 64.3699 22.2877 63.5387 21.5074 62.6611C20.9744 62.0608 20.2378 61.6795 19.4399 61.5909L10.2863 60.5693C9.26549 58.6214 8.4203 56.5865 7.76073 54.4886L13.5132 47.297C14.0154 46.6695 14.2668 45.8778 14.2185 45.0755C14.1496 43.9036 14.1496 42.7286 14.2185 41.5567C14.2668 40.7544 14.0154 39.9627 13.5132 39.3352L7.76073 32.1315C8.4208 30.0338 9.26597 27.9988 10.2863 26.0507L19.4358 25.0129C20.2337 24.9244 20.9704 24.543 21.5033 23.9427C22.2836 23.0651 23.1148 22.234 23.9924 21.4537C24.5951 20.9204 24.978 20.182 25.0667 19.3821L26.0842 10.2326C28.0321 9.21178 30.067 8.36658 32.165 7.70702L39.3565 13.4594C39.984 13.9617 40.7757 14.2131 41.578 14.1648C42.7499 14.0959 43.9249 14.0959 45.0968 14.1648C45.8991 14.2131 46.6908 13.9617 47.3183 13.4594L54.522 7.70702C56.6197 8.36709 58.6547 9.21226 60.6028 10.2326L61.6406 19.3821C61.7291 20.18 62.1105 20.9166 62.7108 21.4496C63.5884 22.2299 64.4195 23.061 65.1999 23.9387C65.7328 24.539 66.4695 24.9203 67.2673 25.0089L76.4209 26.0264C77.4417 27.9743 78.2869 30.0093 78.9465 32.1072L73.1941 39.2987C72.6869 39.9315 72.4353 40.7314 72.4887 41.5405H72.5009Z" fill="#CECECE"/>
<path fill-rule="evenodd" clip-rule="evenodd" d="M45.6492 62.4555C40.9102 62.7658 36.2201 61.3429 32.4524 58.4516C28.6848 55.5604 26.0967 51.3982 25.1703 46.7403C24.2439 42.0824 25.0424 37.2466 27.4169 33.1338L32.2355 35.9158C30.5359 38.8597 29.9644 42.321 30.6275 45.6549C31.2906 48.9889 33.1431 51.9681 35.8398 54.0375C38.5365 56.1069 41.8936 57.1254 45.2856 56.9033C48.6776 56.6812 51.8731 55.2335 54.2769 52.8301C56.6807 50.4266 58.1289 47.2313 58.3515 43.8394C58.5741 40.4474 57.5561 37.0902 55.4871 34.3932C53.4181 31.6961 50.4391 29.8432 47.1053 29.1796L47.6484 26.4511L47.1053 29.1796C43.7715 28.516 40.3101 29.087 37.366 30.7862L34.5847 25.9671C38.6978 23.5932 43.5338 22.7955 48.1915 23.7226C52.8492 24.6497 57.0111 27.2384 59.9017 31.0065C62.7924 34.7745 64.2147 39.4649 63.9036 44.2038C63.5926 48.9427 61.5694 53.4069 58.211 56.7648C54.8527 60.1227 50.3881 62.1452 45.6492 62.4555Z" fill="#CECECE"/>
<path d="M42.3415 52.3463V50.0202C41.4216 49.8039 40.6273 49.3891 39.9587 48.7761C39.2902 48.163 38.8 47.2975 38.4883 46.1795L40.4149 45.3681C40.6752 46.2336 41.0616 46.8917 41.574 47.3425C42.0863 47.7933 42.7587 48.0187 43.5912 48.0187C44.3028 48.0187 44.9061 47.8518 45.4011 47.5178C45.8961 47.1839 46.1433 46.6656 46.1426 45.9631C46.1426 45.332 45.9517 44.8318 45.5698 44.4625C45.188 44.0932 44.3028 43.6738 42.9143 43.2043C41.4216 42.7174 40.3975 42.1357 39.8421 41.4591C39.2867 40.7826 39.009 39.9578 39.009 38.9848C39.009 37.8128 39.3735 36.9022 40.1025 36.253C40.8314 35.6039 41.5778 35.2342 42.3415 35.1441V32.8721H44.4243V35.1441C45.2921 35.2883 46.0083 35.6176 46.5727 36.1318C47.1371 36.6461 47.5492 37.2725 47.8089 38.0111L45.8823 38.8766C45.674 38.2996 45.3789 37.8669 44.9971 37.5784C44.6152 37.2898 44.0945 37.1456 43.435 37.1456C42.6713 37.1456 42.0898 37.3216 41.6906 37.6736C41.2914 38.0255 41.0918 38.4626 41.0918 38.9848C41.0918 39.5799 41.3521 40.0487 41.8728 40.3913C42.3935 40.7339 43.2961 41.0945 44.5805 41.4732C45.7781 41.8338 46.6852 42.4065 47.3017 43.1913C47.9182 43.976 48.2261 44.8819 48.2254 45.909C48.2254 47.1893 47.8609 48.163 47.1319 48.8302C46.403 49.4973 45.5004 49.9121 44.4243 50.0743V52.3463H42.3415Z" fill="#CECECE"/>
</svg>
