<svg width="103" height="103" viewBox="0 0 103 103" fill="none" xmlns="http://www.w3.org/2000/svg">
<path fill-rule="evenodd" clip-rule="evenodd" d="M61.6487 52.9717C61.0621 51.313 59.9757 49.8769 58.5391 48.8612C57.1025 47.8454 55.3864 47.3 53.627 47.3V45.1733H49.3737V47.3C47.1177 47.3 44.954 48.1962 43.3587 49.7915C41.7634 51.3868 40.8672 53.5505 40.8672 55.8065C40.8672 58.0626 41.7634 60.2263 43.3587 61.8216C44.954 63.4169 47.1177 64.3131 49.3737 64.3131V72.8196C47.5236 72.8196 45.9477 71.6393 45.3608 69.9848C45.2737 69.7141 45.1332 69.4637 44.9476 69.2482C44.7621 69.0328 44.5352 68.8567 44.2804 68.7305C44.0256 68.6043 43.748 68.5304 43.4642 68.5133C43.1804 68.4962 42.896 68.5362 42.6279 68.6309C42.3598 68.7257 42.1134 68.8732 41.9033 69.0648C41.6932 69.2564 41.5236 69.4882 41.4047 69.7465C41.2857 70.0048 41.2198 70.2843 41.2108 70.5685C41.2017 70.8527 41.2498 71.1358 41.3521 71.4012C41.9387 73.0599 43.0251 74.496 44.4616 75.5117C45.8982 76.5275 47.6143 77.0729 49.3737 77.0729V79.1995H53.627V77.0729C55.8831 77.0729 58.0468 76.1767 59.6421 74.5814C61.2373 72.9861 62.1336 70.8224 62.1336 68.5664C62.1336 66.3103 61.2373 64.1466 59.6421 62.5513C58.0468 60.956 55.8831 60.0598 53.627 60.0598V51.5533C54.5066 51.553 55.3647 51.8255 56.083 52.3332C56.8013 52.8409 57.3445 53.5588 57.6379 54.3881C57.8257 54.9199 58.2171 55.3554 58.726 55.5987C58.978 55.7191 59.2512 55.7888 59.5301 55.8037C59.809 55.8185 60.0881 55.7783 60.3514 55.6853C60.6148 55.5923 60.8573 55.4484 61.065 55.2616C61.2727 55.0749 61.4416 54.8492 61.5621 54.5972C61.6825 54.3452 61.7522 54.072 61.767 53.7931C61.7819 53.5142 61.7417 53.2351 61.6487 52.9717ZM49.3737 51.5533C48.2457 51.5533 47.1639 52.0014 46.3662 52.799C45.5686 53.5967 45.1205 54.6785 45.1205 55.8065C45.1205 56.9346 45.5686 58.0164 46.3662 58.814C47.1639 59.6117 48.2457 60.0598 49.3737 60.0598V51.5533ZM53.627 72.8196C54.7551 72.8196 55.8369 72.3715 56.6345 71.5739C57.4322 70.7762 57.8803 69.6944 57.8803 68.5664C57.8803 67.4383 57.4322 66.3565 56.6345 65.5588C55.8369 64.7612 54.7551 64.3131 53.627 64.3131V72.8196Z" fill="#BCBCBC"/>
<path fill-rule="evenodd" clip-rule="evenodd" d="M28.4342 18.8478C33.653 16.2938 42.2148 13.2739 51.5848 13.2739C60.7591 13.2739 69.0955 16.1683 74.2867 18.6883L74.5801 18.8308C76.1454 19.6049 77.4086 20.3365 78.2975 20.9298L70.4417 32.4137C88.5522 50.9282 102.541 89.8265 51.5848 89.8265C0.628443 89.8265 14.2411 51.6342 32.5089 32.4137L24.7041 20.9298C25.3059 20.5364 26.0694 20.0792 26.9796 19.5943C27.4305 19.3519 27.9153 19.1009 28.4342 18.8478ZM65.3931 32.2605L71.6815 23.0671C65.8333 23.4882 58.8749 24.862 52.176 26.8015C47.3911 28.1838 42.0745 27.9732 37.1513 27.0652C35.9107 26.8352 34.6786 26.5614 33.4574 26.2443L37.5405 32.2563C46.2916 35.3718 56.6398 35.3718 65.3931 32.2605ZM35.0842 35.8801C45.324 39.8356 57.6308 39.8356 67.8706 35.8758C72.1449 40.3815 75.7204 45.5018 78.4783 51.0664C81.3535 56.9317 82.9187 62.7948 82.6635 67.8477C82.4168 72.7241 80.4986 76.8902 76.1177 79.9865C71.5518 83.2127 63.8725 85.5732 51.5827 85.5732C39.2801 85.5732 31.5646 83.2531 26.9562 80.0631C22.5434 77.005 20.6061 72.8963 20.3317 68.0859C20.0446 63.0883 21.5758 57.2549 24.4404 51.3492C27.1731 45.7179 30.9862 40.2971 35.0842 35.8801ZM32.6386 21.6018C34.3399 22.108 36.1178 22.5482 37.9212 22.8821C42.4934 23.7242 47.0785 23.8476 50.9915 22.7141C55.5514 21.3857 60.1893 20.3409 64.8784 19.5858C60.9654 18.4076 56.3889 17.5272 51.5827 17.5272C44.2564 17.5272 37.4235 19.5709 32.6386 21.6018Z" fill="#BCBCBC"/>
</svg>
