<svg width="48" height="39" viewBox="0 0 48 39" fill="none" xmlns="http://www.w3.org/2000/svg">
<path fill-rule="evenodd" clip-rule="evenodd" d="M20.0448 0C25.5652 0 29.3805 1.86035 31.8483 4.37787C33.6484 6.21421 34.6642 8.33147 35.1342 10.1585C37.3597 10.4255 40.0713 11.225 42.4481 12.9232C45.5863 15.1655 48 18.885 48 24.5258C48 30.1665 45.5863 33.886 42.4481 36.1283C39.4132 38.2968 35.8321 39 33.4147 39H11.5367V28.1443H0L0.200831 25.952C0.405275 23.7203 0.83129 20.0751 2.61922 16.8356C4.26858 13.8471 7.04267 11.2724 11.5367 10.3383V2.01031H11.5627L11.5627 0H20.0448ZM15.5881 4.02062H20.0448C24.572 4.02062 27.3066 5.51078 28.9443 7.18141C29.8457 8.10098 30.4535 9.11496 30.8401 10.0515H15.5881V4.02062ZM13.6667 14.0722C9.59087 14.5041 7.44059 16.4696 6.17263 18.767C5.23672 20.4628 4.76454 22.3784 4.49598 24.1237H22.9903C25.6291 23.2903 30.3911 20.2824 31.2532 14.0722H13.6667ZM35.3176 14.2488C34.3179 22.9497 27.462 27.0613 23.8322 28.0699L23.5642 28.1443H15.5881V34.9794H33.4147C35.1838 34.9794 37.8825 34.4362 40.0808 32.8655C42.1757 31.3686 43.9485 28.8561 43.9485 24.5258C43.9485 20.1954 42.1757 17.683 40.0808 16.1861C38.5747 15.1099 36.8336 14.5161 35.3176 14.2488Z" fill="url(#paint0_linear_1486_481)"/>
<defs>
<linearGradient id="paint0_linear_1486_481" x1="1.5" y1="19.5" x2="48" y2="28.5" gradientUnits="userSpaceOnUse">
<stop stop-color="#1F1BFF"/>
<stop offset="1" stop-color="#FF03A9"/>
</linearGradient>
</defs>
</svg>
    