<svg width="94" height="18" viewBox="0 0 94 18" fill="none" xmlns="http://www.w3.org/2000/svg">
<path d="M13.6921 0.914439V17.8075H9.84118V10.8529H3.8509V17.8075H0V0.914439H3.8509V7.53208H9.84118V0.914439H13.6921Z" fill="black"/>
<path d="M28.8805 4.37968V17.8075H25.0296V15.9786C24.6392 16.5722 24.1063 17.0535 23.4307 17.4225C22.7701 17.7754 22.0345 17.9519 21.2237 17.9519C20.2629 17.9519 19.4146 17.7273 18.679 17.2781C17.9433 16.8128 17.3728 16.1471 16.9675 15.2807C16.5621 14.4144 16.3594 13.3957 16.3594 12.2246V4.37968H20.1878V11.6711C20.1878 12.5695 20.4055 13.2674 20.8409 13.7647C21.2763 14.262 21.8618 14.5107 22.5974 14.5107C23.3481 14.5107 23.9411 14.262 24.3765 13.7647C24.8119 13.2674 25.0296 12.5695 25.0296 11.6711V4.37968H28.8805Z" fill="black"/>
<path d="M35.4975 6.28075C35.8578 5.65508 36.3757 5.14973 37.0513 4.7647C37.7269 4.37968 38.5001 4.18716 39.3709 4.18716C40.4068 4.18716 41.3451 4.46791 42.1859 5.02941C43.0266 5.59091 43.6872 6.39305 44.1676 7.43583C44.663 8.47861 44.9108 9.68984 44.9108 11.0695C44.9108 12.4492 44.663 13.6685 44.1676 14.7273C43.6872 15.7701 43.0266 16.5802 42.1859 17.1578C41.3451 17.7193 40.4068 18 39.3709 18C38.4851 18 37.7119 17.8155 37.0513 17.4465C36.3907 17.0615 35.8728 16.5561 35.4975 15.9305V17.8075H31.6466V0H35.4975V6.28075ZM40.9923 11.0695C40.9923 10.0428 40.7221 9.24064 40.1816 8.6631C39.6561 8.06952 39.003 7.77273 38.2224 7.77273C37.4567 7.77273 36.8036 8.06952 36.2631 8.6631C35.7377 9.25668 35.4749 10.0668 35.4749 11.0936C35.4749 12.1203 35.7377 12.9305 36.2631 13.5241C36.8036 14.1176 37.4567 14.4144 38.2224 14.4144C38.988 14.4144 39.6411 14.1176 40.1816 13.5241C40.7221 12.9144 40.9923 12.0963 40.9923 11.0695Z" fill="black"/>
<path d="M50.7819 0V17.8075H46.931V0H50.7819Z" fill="black"/>
<path d="M59.2927 18C58.0616 18 56.9506 17.7193 55.9597 17.1578C54.9839 16.5963 54.2107 15.7941 53.6402 14.7513C53.0847 13.7086 52.807 12.4893 52.807 11.0936C52.807 9.7139 53.0922 8.50267 53.6627 7.45989C54.2332 6.40107 55.0139 5.59091 56.0048 5.02941C56.9957 4.46791 58.1066 4.18716 59.3377 4.18716C60.5688 4.18716 61.6798 4.46791 62.6707 5.02941C63.6615 5.59091 64.4422 6.40107 65.0127 7.45989C65.5832 8.50267 65.8685 9.7139 65.8685 11.0936C65.8685 12.4733 65.5757 13.6925 64.9902 14.7513C64.4197 15.7941 63.6315 16.5963 62.6256 17.1578C61.6347 17.7193 60.5238 18 59.2927 18ZM59.2927 14.4385C60.0283 14.4385 60.6514 14.1497 61.1618 13.5722C61.6873 12.9947 61.95 12.1684 61.95 11.0936C61.95 10.0187 61.6948 9.19251 61.1843 8.61497C60.6889 8.03743 60.0734 7.74866 59.3377 7.74866C58.5871 7.74866 57.964 8.03743 57.4686 8.61497C56.9731 9.17647 56.7254 10.0027 56.7254 11.0936C56.7254 12.1684 56.9656 12.9947 57.446 13.5722C57.9415 14.1497 58.557 14.4385 59.2927 14.4385Z" fill="black"/>
<path d="M67.1458 11.0936C67.1458 9.69786 67.4085 8.47861 67.934 7.43583C68.4744 6.39305 69.2176 5.59091 70.1634 5.02941C71.1243 4.46791 72.2202 4.18716 73.4513 4.18716C75.0277 4.18716 76.3414 4.62834 77.3923 5.51069C78.4582 6.39305 79.1564 7.63636 79.4867 9.24064H75.388C75.0427 8.2139 74.3746 7.70053 73.3838 7.70053C72.6782 7.70053 72.1152 7.99733 71.6948 8.59091C71.2744 9.16845 71.0642 10.0027 71.0642 11.0936C71.0642 12.1845 71.2744 13.0267 71.6948 13.6203C72.1152 14.1979 72.6782 14.4866 73.3838 14.4866C74.3746 14.4866 75.0427 13.9733 75.388 12.9465H79.4867C79.1564 14.5187 78.4582 15.754 77.3923 16.6524C76.3264 17.5508 75.0127 18 73.4513 18C72.2202 18 71.1243 17.7193 70.1634 17.1578C69.2176 16.5963 68.4744 15.7941 67.934 14.7513C67.4085 13.7086 67.1458 12.4893 67.1458 11.0936Z" fill="black"/>
<path d="M89.2258 17.8075L85.3974 12.1765V17.8075H81.5465V0H85.3974V9.84224L89.2033 4.37968H93.955L88.7304 11.1176L94 17.8075H89.2258Z" fill="black"/>
</svg>
