<svg width="106" height="27" viewBox="0 0 106 27" fill="none" xmlns="http://www.w3.org/2000/svg">
<path fill-rule="evenodd" clip-rule="evenodd" d="M13.7808 0C17.5761 0 20.1991 1.28794 21.8957 3.03083C23.1333 4.30215 23.8316 5.76794 24.1548 7.03283C25.6848 7.21762 27.549 7.77115 29.183 8.94683C31.3406 10.4992 33 13.0742 33 16.9794C33 20.8845 31.3406 23.4596 29.183 25.0119C27.0965 26.5132 24.6346 27 22.9726 27H7.93145V19.4845H0L0.138071 17.9668C0.278627 16.4217 0.571512 13.8982 1.80071 11.6554C2.93465 9.58646 4.84183 7.80396 7.93145 7.15727V1.39175H7.94933L7.94933 0H13.7808ZM10.7168 2.78351H13.7808C16.8932 2.78351 18.7733 3.81516 19.8992 4.97175C20.5189 5.60837 20.9368 6.31036 21.2026 6.95876H10.7168V2.78351ZM9.39587 9.74227C6.59372 10.0413 5.1154 11.402 4.24368 12.9925C3.60025 14.1665 3.27562 15.4928 3.09099 16.701H15.8058C17.62 16.124 20.8939 14.0417 21.4866 9.74227H9.39587ZM24.2808 9.86458C23.5935 15.8883 18.8801 18.7347 16.3846 19.433L16.2004 19.4845H10.7168V24.2165H22.9726C24.1888 24.2165 26.0442 23.8404 27.5555 22.753C28.9958 21.7167 30.2146 19.9773 30.2146 16.9794C30.2146 13.9814 28.9958 12.242 27.5555 11.2057C26.5201 10.4607 25.3231 10.0496 24.2808 9.86458Z" fill="white"/>
<path d="M40.7981 15.5608C41.1535 15.0035 41.6643 14.5533 42.3307 14.2103C42.997 13.8674 43.7596 13.6959 44.6184 13.6959C45.6401 13.6959 46.5656 13.946 47.3948 14.4461C48.224 14.9463 48.8756 15.6608 49.3494 16.5897C49.838 17.5186 50.0824 18.5975 50.0824 19.8265C50.0824 21.0555 49.838 22.1416 49.3494 23.0847C48.8756 24.0136 48.224 24.7353 47.3948 25.2497C46.5656 25.7499 45.6401 26 44.6184 26C43.7448 26 42.9822 25.8357 42.3307 25.507C41.6792 25.164 41.1683 24.7139 40.7981 24.1565V25.8285H37V9.96603H40.7981V15.5608ZM46.2176 19.8265C46.2176 18.9119 45.9511 18.1974 45.418 17.6829C44.8998 17.1542 44.2556 16.8898 43.4857 16.8898C42.7305 16.8898 42.0864 17.1542 41.5533 17.6829C41.035 18.2117 40.7759 18.9333 40.7759 19.8479C40.7759 20.7625 41.035 21.4842 41.5533 22.0129C42.0864 22.5417 42.7305 22.8061 43.4857 22.8061C44.2408 22.8061 44.885 22.5417 45.418 22.0129C45.9511 21.4699 46.2176 20.7411 46.2176 19.8265Z" fill="white"/>
<path d="M53.9851 9.96562C53.3188 9.96562 52.7709 9.77985 52.3415 9.40829C51.9269 9.02245 51.7196 8.55086 51.7196 7.99353C51.7196 7.42191 51.9269 6.95033 52.3415 6.57877C52.7709 6.19293 53.3188 6.00001 53.9851 6.00001C54.6366 6.00001 55.1697 6.19293 55.5843 6.57877C56.0137 6.95033 56.2284 7.42191 56.2284 7.99353C56.2284 8.55086 56.0137 9.02245 55.5843 9.40829C55.1697 9.77985 54.6366 9.96562 53.9851 9.96562ZM55.8731 13.8674V25.8285H52.075V13.8674H55.8731Z" fill="white"/>
<path d="M66.1773 13.7387C67.6284 13.7387 68.7834 14.196 69.6422 15.1106C70.5159 16.0109 70.9527 17.2542 70.9527 18.8405V25.8285H67.1768V19.3335C67.1768 18.5332 66.9621 17.9116 66.5327 17.4686C66.1033 17.0256 65.5258 16.8041 64.8002 16.8041C64.0746 16.8041 63.4972 17.0256 63.0677 17.4686C62.6383 17.9116 62.4236 18.5332 62.4236 19.3335V25.8285H58.6255V13.8674H62.4236V15.4536C62.8086 14.9249 63.3269 14.5104 63.9784 14.2103C64.6299 13.8959 65.3629 13.7387 66.1773 13.7387Z" fill="white"/>
<path d="M81.166 25.8285L77.3901 20.8125V25.8285H73.592V9.96603H77.3901V18.7333L81.1438 13.8674H85.8304L80.6774 19.8694L85.8748 25.8285H81.166Z" fill="white"/>
<path d="M89.2323 9.96562C88.566 9.96562 88.0181 9.77985 87.5887 9.40829C87.1741 9.02245 86.9668 8.55086 86.9668 7.99353C86.9668 7.42191 87.1741 6.95033 87.5887 6.57877C88.0181 6.19293 88.566 6.00001 89.2323 6.00001C89.8838 6.00001 90.4169 6.19293 90.8315 6.57877C91.2609 6.95033 91.4756 7.42191 91.4756 7.99353C91.4756 8.55086 91.2609 9.02245 90.8315 9.40829C90.4169 9.77985 89.8838 9.96562 89.2323 9.96562ZM91.1203 13.8674V25.8285H87.3222V13.8674H91.1203Z" fill="white"/>
<path d="M99.5143 26C98.3001 26 97.2044 25.7499 96.2271 25.2497C95.2646 24.7496 94.502 24.0351 93.9393 23.1062C93.3915 22.1773 93.1175 21.0912 93.1175 19.8479C93.1175 18.6189 93.3989 17.54 93.9616 16.6111C94.5242 15.668 95.2942 14.9463 96.2715 14.4461C97.2488 13.946 98.3446 13.6959 99.5588 13.6959C100.773 13.6959 101.869 13.946 102.846 14.4461C103.823 14.9463 104.593 15.668 105.156 16.6111C105.719 17.54 106 18.6189 106 19.8479C106 21.0769 105.711 22.163 105.134 23.1062C104.571 24.0351 103.794 24.7496 102.802 25.2497C101.824 25.7499 100.729 26 99.5143 26ZM99.5143 22.8275C100.24 22.8275 100.854 22.5703 101.358 22.0558C101.876 21.5414 102.135 20.8054 102.135 19.8479C102.135 18.8905 101.884 18.1545 101.38 17.6401C100.891 17.1256 100.284 16.8684 99.5588 16.8684C98.8184 16.8684 98.2039 17.1256 97.7152 17.6401C97.2266 18.1402 96.9823 18.8762 96.9823 19.8479C96.9823 20.8054 97.2192 21.5414 97.693 22.0558C98.1817 22.5703 98.7888 22.8275 99.5143 22.8275Z" fill="white"/>
</svg>
