<svg width="92" height="24" viewBox="0 0 92 24" fill="none" xmlns="http://www.w3.org/2000/svg">
<path fill-rule="evenodd" clip-rule="evenodd" d="M11.9608 0C15.2549 0 17.5315 1.11784 19.004 2.63056C20.0782 3.73398 20.6843 5.00619 20.9647 6.10403C22.2927 6.26442 23.9107 6.74484 25.3289 7.76525C27.2015 9.1126 28.6418 11.3476 28.6418 14.737C28.6418 18.1264 27.2015 20.3613 25.3289 21.7087C23.518 23.0117 21.3812 23.4342 19.9387 23.4342H6.88397V16.9113H0L0.119837 15.594C0.241829 14.253 0.496034 12.0627 1.5629 10.1161C2.54708 8.32041 4.20239 6.77332 6.88397 6.21203V1.20795H6.89949L6.89949 0H11.9608ZM9.30151 2.4159H11.9608C14.6622 2.4159 16.294 3.3113 17.2712 4.31514C17.809 4.86769 18.1717 5.47697 18.4024 6.03974H9.30151V2.4159ZM8.15499 8.45564C5.72291 8.71515 4.43983 9.89619 3.68323 11.2766C3.12477 12.2956 2.84302 13.4467 2.68277 14.4954H13.7184C15.293 13.9946 18.1345 12.1872 18.6489 8.45564H8.15499ZM21.0741 8.5618C20.4776 13.79 16.3867 16.2605 14.2207 16.8665L14.0609 16.9113H9.30151V21.0183H19.9387C20.9943 21.0183 22.6046 20.6919 23.9163 19.7481C25.1664 18.8487 26.2243 17.339 26.2243 14.737C26.2243 12.135 25.1664 10.6253 23.9163 9.72584C23.0176 9.07921 21.9788 8.72239 21.0741 8.5618Z" fill="black"/>
<path d="M35.4059 13.5052C35.7143 13.0214 36.1577 12.6307 36.736 12.333C37.3144 12.0354 37.9763 11.8865 38.7217 11.8865C39.6084 11.8865 40.4117 12.1036 41.1314 12.5377C41.8511 12.9718 42.4166 13.592 42.8278 14.3982C43.2519 15.2044 43.464 16.1408 43.464 17.2075C43.464 18.2742 43.2519 19.2168 42.8278 20.0354C42.4166 20.8416 41.8511 21.468 41.1314 21.9145C40.4117 22.3486 39.6084 22.5657 38.7217 22.5657C37.9634 22.5657 37.3015 22.4231 36.736 22.1378C36.1706 21.8401 35.7272 21.4494 35.4059 20.9657V22.4169H32.1094V8.64928H35.4059V13.5052ZM40.1097 17.2075C40.1097 16.4137 39.8783 15.7935 39.4157 15.347C38.9658 14.8881 38.4068 14.6586 37.7385 14.6586C37.083 14.6586 36.524 14.8881 36.0613 15.347C35.6115 15.8059 35.3866 16.4323 35.3866 17.2261C35.3866 18.0199 35.6115 18.6463 36.0613 19.1052C36.524 19.5641 37.083 19.7936 37.7385 19.7936C38.3939 19.7936 38.953 19.5641 39.4157 19.1052C39.8783 18.6339 40.1097 18.0013 40.1097 17.2075Z" fill="black"/>
<path d="M46.8513 8.64893C46.273 8.64893 45.7975 8.48768 45.4248 8.1652C45.0649 7.83031 44.885 7.42101 44.885 6.93728C44.885 6.44116 45.0649 6.03185 45.4248 5.70937C45.7975 5.37448 46.273 5.20704 46.8513 5.20704C47.4168 5.20704 47.8795 5.37448 48.2393 5.70937C48.612 6.03185 48.7984 6.44116 48.7984 6.93728C48.7984 7.42101 48.612 7.83031 48.2393 8.1652C47.8795 8.48768 47.4168 8.64893 46.8513 8.64893ZM48.4899 12.0354V22.4169H45.1934V12.0354H48.4899Z" fill="black"/>
<path d="M57.4333 11.9237C58.6928 11.9237 59.6953 12.3206 60.4407 13.1144C61.1989 13.8959 61.578 14.9749 61.578 16.3517V22.4169H58.3008V16.7796C58.3008 16.085 58.1145 15.5455 57.7418 15.161C57.3691 14.7765 56.8678 14.5842 56.2381 14.5842C55.6084 14.5842 55.1071 14.7765 54.7344 15.161C54.3617 15.5455 54.1754 16.085 54.1754 16.7796V22.4169H50.8789V12.0354H54.1754V13.4121C54.5095 12.9532 54.9593 12.5935 55.5248 12.333C56.0903 12.0602 56.7265 11.9237 57.4333 11.9237Z" fill="black"/>
<path d="M70.4425 22.4169L67.1653 18.0633V22.4169H63.8688V8.64928H67.1653V16.2587L70.4232 12.0354H74.4909L70.0184 17.2447L74.5294 22.4169H70.4425Z" fill="black"/>
<path d="M77.4435 8.64893C76.8652 8.64893 76.3897 8.48768 76.017 8.1652C75.6571 7.83031 75.4772 7.42101 75.4772 6.93728C75.4772 6.44116 75.6571 6.03185 76.017 5.70937C76.3897 5.37448 76.8652 5.20704 77.4435 5.20704C78.009 5.20704 78.4717 5.37448 78.8315 5.70937C79.2042 6.03185 79.3906 6.44116 79.3906 6.93728C79.3906 7.42101 79.2042 7.83031 78.8315 8.1652C78.4717 8.48768 78.009 8.64893 77.4435 8.64893ZM79.0821 12.0354V22.4169H75.7856V12.0354H79.0821Z" fill="black"/>
<path d="M86.3676 22.5657C85.3138 22.5657 84.3627 22.3486 83.5145 21.9145C82.6791 21.4804 82.0173 20.8603 81.5289 20.054C81.0534 19.2478 80.8156 18.3052 80.8156 17.2261C80.8156 16.1594 81.0598 15.223 81.5482 14.4168C82.0366 13.5982 82.7049 12.9718 83.5531 12.5377C84.4013 12.1036 85.3523 11.8865 86.4062 11.8865C87.46 11.8865 88.4111 12.1036 89.2593 12.5377C90.1075 12.9718 90.7758 13.5982 91.2642 14.4168C91.7526 15.223 91.9968 16.1594 91.9968 17.2261C91.9968 18.2928 91.7461 19.2354 91.2449 20.054C90.7565 20.8603 90.0818 21.4804 89.2207 21.9145C88.3725 22.3486 87.4215 22.5657 86.3676 22.5657ZM86.3676 19.8122C86.9974 19.8122 87.5307 19.5889 87.9677 19.1424C88.4175 18.6959 88.6424 18.0571 88.6424 17.2261C88.6424 16.3951 88.4239 15.7563 87.987 15.3098C87.5629 14.8633 87.0359 14.64 86.4062 14.64C85.7636 14.64 85.2302 14.8633 84.8061 15.3098C84.382 15.7439 84.17 16.3827 84.17 17.2261C84.17 18.0571 84.3756 18.6959 84.7869 19.1424C85.211 19.5889 85.7379 19.8122 86.3676 19.8122Z" fill="black"/>
</svg>
